<svg xmlns="http://www.w3.org/2000/svg" xmlns:xlink="http://www.w3.org/1999/xlink" width="500" zoomAndPan="magnify" viewBox="0 0 375 374.999991" height="500" preserveAspectRatio="xMidYMid meet" version="1.0"><defs><filter x="0%" y="0%" width="100%" height="100%" id="4dd5b077dd"><feColorMatrix values="0 0 0 0 1 0 0 0 0 1 0 0 0 0 1 0 0 0 1 0" color-interpolation-filters="sRGB"/></filter><clipPath id="f5e65d6aa2"><path d="M 123.285156 123.972656 L 270 123.972656 L 270 273.972656 L 123.285156 273.972656 Z M 123.285156 123.972656 " clip-rule="nonzero"/></clipPath><mask id="42236d5fa1"><g filter="url(#4dd5b077dd)"><rect x="-37.5" width="450" fill="#000000" y="-37.499999" height="449.999989" fill-opacity="0.81"/></g></mask><clipPath id="fa21f851b6"><path d="M 0.128906 0.449219 L 135.660156 0.449219 L 135.660156 69.980469 L 0.128906 69.980469 Z M 0.128906 0.449219 " clip-rule="nonzero"/></clipPath><clipPath id="cdc2d55273"><path d="M 0.128906 43.601562 L 0.128906 0.449219 L 135.625 26.828125 L 135.625 69.980469 Z M 0.128906 43.601562 " clip-rule="nonzero"/></clipPath><clipPath id="28621c0aac"><rect x="0" width="136" y="0" height="71"/></clipPath></defs><rect x="-37.5" width="450" fill="#ffffff" y="-37.499999" height="449.999989" fill-opacity="1"/><rect x="-37.5" width="450" fill="#1a1a1a" y="-37.499999" height="449.999989" fill-opacity="1"/><g clip-path="url(#f5e65d6aa2)"><path fill="#ffffff" d="M 203.261719 273.972656 C 230.816406 273.972656 252.957031 264.070312 267.359375 245.257812 L 269.6875 242.175781 L 234.644531 210.878906 L 231.898438 214.375 C 224.238281 224.113281 215.832031 228.691406 205.59375 228.691406 C 188.863281 228.691406 178.039062 217.039062 178.039062 198.972656 C 178.039062 180.910156 188.863281 169.257812 205.59375 169.257812 C 215.914062 169.257812 224.238281 173.835938 231.898438 183.574219 L 234.644531 187.070312 L 269.6875 155.773438 L 267.359375 152.691406 C 252.875 133.878906 230.730469 123.972656 203.261719 123.972656 C 157.0625 123.972656 123.601562 155.523438 123.601562 198.972656 C 123.601562 242.425781 157.0625 273.972656 203.261719 273.972656 Z M 203.261719 273.972656 " fill-opacity="1" fill-rule="nonzero"/></g><g mask="url(#42236d5fa1)"><g transform="matrix(1, 0, 0, 1, 94, 103)"><g clip-path="url(#28621c0aac)"><g clip-path="url(#fa21f851b6)"><g clip-path="url(#cdc2d55273)"><path fill="#ffffff" d="M 0.128906 69.980469 L 0.128906 0.449219 L 135.660156 0.449219 L 135.660156 69.980469 Z M 0.128906 69.980469 " fill-opacity="1" fill-rule="nonzero"/></g></g></g></g></g></svg>